<svg xmlns="http://www.w3.org/2000/svg" xmlns:xlink="http://www.w3.org/1999/xlink" width="500" zoomAndPan="magnify" viewBox="0 0 375 374.999991" height="500" preserveAspectRatio="xMidYMid meet" version="1.0"><defs><g/><clipPath id="f30a0763dd"><path d="M 187.5 0 C 83.945312 0 0 83.945312 0 187.5 C 0 291.054688 83.945312 375 187.5 375 C 291.054688 375 375 291.054688 375 187.5 C 375 83.945312 291.054688 0 187.5 0 Z M 187.5 0 " clip-rule="nonzero"/></clipPath></defs><g clip-path="url(#f30a0763dd)"><rect x="-37.5" width="450" fill="#000000" y="-37.499999" height="449.999989" fill-opacity="1"/></g><path fill="#ffffff" d="M 88.625 191.878906 L 286.375 191.878906 L 286.375 201.144531 L 88.625 201.144531 Z M 88.625 191.878906 " fill-opacity="1" fill-rule="nonzero"/><g fill="#ffffff" fill-opacity="1"><g transform="translate(88.626767, 186.733273)"><g><path d="M 38.625 -72.625 L 52.15625 -72.625 L 52.15625 -79.96875 L 59.484375 -79.96875 L 59.484375 -72.625 L 73.015625 -72.625 L 73.015625 -79.96875 L 80.34375 -79.96875 L 80.34375 -72.625 L 93.875 -72.625 L 93.875 -65.671875 L 80.34375 -65.671875 L 80.34375 -58.328125 L 89.234375 -58.328125 L 89.234375 -26.65625 L 69.53125 -26.65625 C 69.269531 -24.332031 68.882812 -22.015625 68.375 -19.703125 L 93.875 -19.703125 L 93.875 -12.75 L 72.625 -12.75 C 77 -6.050781 84.46875 -1.414062 95.03125 1.15625 L 90.78125 8.890625 C 78.9375 5.023438 70.566406 -1.671875 65.671875 -11.203125 C 61.296875 -0.640625 52.28125 5.925781 38.625 8.5 L 35.53125 1.9375 C 47.632812 -1.15625 55.234375 -6.050781 58.328125 -12.75 L 38.25 -12.75 L 38.25 -19.703125 L 60.640625 -19.703125 C 61.421875 -21.765625 61.9375 -24.082031 62.1875 -26.65625 L 43.265625 -26.65625 L 43.265625 -58.328125 L 52.15625 -58.328125 L 52.15625 -65.671875 L 38.625 -65.671875 Z M 59.484375 -58.328125 L 73.015625 -58.328125 L 73.015625 -65.671875 L 59.484375 -65.671875 Z M 50.609375 -45.578125 L 81.890625 -45.578125 L 81.890625 -51.765625 L 50.609375 -51.765625 Z M 50.609375 -33.21875 L 81.890625 -33.21875 L 81.890625 -39.78125 L 50.609375 -39.78125 Z M 6.5625 -62.1875 L 18.921875 -62.1875 L 18.921875 -79.96875 L 26.265625 -79.96875 L 26.265625 -62.1875 L 37.859375 -62.1875 L 37.859375 -54.859375 L 26.265625 -54.859375 L 26.265625 -50.21875 C 31.160156 -44.289062 35.410156 -38.492188 39.015625 -32.828125 L 34 -25.5 C 31.414062 -30.90625 28.835938 -35.664062 26.265625 -39.78125 L 26.265625 8.890625 L 18.921875 8.890625 L 18.921875 -33.21875 C 16.085938 -24.71875 12.742188 -17.632812 8.890625 -11.96875 L 3.484375 -17.390625 C 10.941406 -28.460938 15.832031 -40.953125 18.15625 -54.859375 L 6.5625 -54.859375 Z M 6.5625 -62.1875 "/></g></g></g><g fill="#ffffff" fill-opacity="1"><g transform="translate(187.499991, 186.733273)"><g><path d="M 6.5625 -62.1875 L 18.921875 -62.1875 L 18.921875 -79.96875 L 26.265625 -79.96875 L 26.265625 -62.1875 L 37.859375 -62.1875 L 37.859375 -54.859375 L 26.265625 -54.859375 L 26.265625 -50.21875 C 31.160156 -44.289062 35.410156 -38.492188 39.015625 -32.828125 L 34 -25.5 C 31.414062 -30.90625 28.835938 -35.664062 26.265625 -39.78125 L 26.265625 8.890625 L 18.921875 8.890625 L 18.921875 -33.21875 C 16.085938 -24.71875 12.742188 -17.632812 8.890625 -11.96875 L 3.484375 -17.390625 C 10.941406 -28.460938 15.832031 -40.953125 18.15625 -54.859375 L 6.5625 -54.859375 Z M 50.609375 -45.203125 C 50.085938 -24.078125 45.96875 -6.5625 38.25 7.34375 L 31.296875 2.703125 C 39.015625 -10.941406 42.875 -29.097656 42.875 -51.765625 L 42.875 -72.625 C 57.300781 -74.164062 70.566406 -76.484375 82.671875 -79.578125 L 88.453125 -73.390625 C 77.128906 -70.046875 64.515625 -67.726562 50.609375 -66.4375 L 50.609375 -52.15625 L 87.6875 -52.15625 C 86.65625 -37.988281 82.535156 -25.238281 75.328125 -13.90625 C 80.472656 -7.976562 86.65625 -2.828125 93.875 1.546875 L 88.078125 8.109375 C 81.378906 3.992188 75.582031 -1.15625 70.6875 -7.34375 C 65.019531 -0.90625 58.195312 4.375 50.21875 8.5 L 45.578125 1.546875 C 53.816406 -2.054688 60.515625 -7.078125 65.671875 -13.515625 C 58.710938 -23.816406 54.207031 -34.378906 52.15625 -45.203125 Z M 59.875 -45.203125 C 61.675781 -36.179688 65.15625 -27.8125 70.3125 -20.09375 C 74.945312 -27.5625 77.90625 -35.929688 79.1875 -45.203125 Z M 59.875 -45.203125 "/></g></g></g><g fill="#ffffff" fill-opacity="1"><g transform="translate(118.490206, 260.209207)"><g><path d="M 7.5625 0 L 4.40625 0 L 4.40625 -29.09375 L 9.46875 -29.09375 L 18.296875 -4.453125 L 18.703125 -4.453125 L 27.53125 -29.09375 L 32.421875 -29.09375 L 32.421875 0 L 29.1875 0 L 29.1875 -23.75 L 28.6875 -23.828125 L 20.078125 0 L 16.6875 0 L 8.0625 -23.828125 L 7.5625 -23.75 Z M 7.5625 0 "/></g></g></g><g fill="#ffffff" fill-opacity="1"><g transform="translate(155.325345, 260.209207)"><g><path d="M 12.59375 0.421875 C 10.53125 0.421875 8.726562 -0.015625 7.1875 -0.890625 C 5.65625 -1.765625 4.472656 -3.054688 3.640625 -4.765625 C 2.816406 -6.472656 2.40625 -8.539062 2.40625 -10.96875 C 2.40625 -13.394531 2.816406 -15.460938 3.640625 -17.171875 C 4.472656 -18.890625 5.65625 -20.1875 7.1875 -21.0625 C 8.726562 -21.9375 10.53125 -22.375 12.59375 -22.375 C 14.664062 -22.375 16.46875 -21.9375 18 -21.0625 C 19.53125 -20.1875 20.710938 -18.890625 21.546875 -17.171875 C 22.378906 -15.460938 22.796875 -13.394531 22.796875 -10.96875 C 22.796875 -8.539062 22.378906 -6.472656 21.546875 -4.765625 C 20.710938 -3.054688 19.53125 -1.765625 18 -0.890625 C 16.46875 -0.015625 14.664062 0.421875 12.59375 0.421875 Z M 12.59375 -2.484375 C 14.789062 -2.484375 16.46875 -3.171875 17.625 -4.546875 C 18.789062 -5.929688 19.375 -8.070312 19.375 -10.96875 C 19.375 -13.875 18.789062 -16.015625 17.625 -17.390625 C 16.46875 -18.773438 14.789062 -19.46875 12.59375 -19.46875 C 10.40625 -19.46875 8.726562 -18.773438 7.5625 -17.390625 C 6.394531 -16.003906 5.8125 -13.863281 5.8125 -10.96875 C 5.8125 -8.070312 6.394531 -5.929688 7.5625 -4.546875 C 8.726562 -3.171875 10.40625 -2.484375 12.59375 -2.484375 Z M 12.59375 -2.484375 "/></g></g></g><g fill="#ffffff" fill-opacity="1"><g transform="translate(180.518905, 260.209207)"><g><path d="M 4.40625 0 L 4.40625 -29.09375 L 15.421875 -29.09375 C 17.210938 -29.09375 18.734375 -28.804688 19.984375 -28.234375 C 21.234375 -27.671875 22.171875 -26.859375 22.796875 -25.796875 C 23.429688 -24.742188 23.75 -23.488281 23.75 -22.03125 C 23.75 -20.769531 23.40625 -19.628906 22.71875 -18.609375 C 22.039062 -17.585938 21.0625 -16.789062 19.78125 -16.21875 L 19.78125 -15.796875 C 21.71875 -15.328125 23.1875 -14.460938 24.1875 -13.203125 C 25.195312 -11.941406 25.703125 -10.351562 25.703125 -8.4375 C 25.703125 -5.726562 24.90625 -3.644531 23.3125 -2.1875 C 21.726562 -0.726562 19.378906 0 16.265625 0 Z M 15.265625 -16.875 C 16.867188 -16.875 18.113281 -17.296875 19 -18.140625 C 19.894531 -18.984375 20.34375 -20.140625 20.34375 -21.609375 C 20.34375 -23.171875 19.914062 -24.335938 19.0625 -25.109375 C 18.207031 -25.890625 16.941406 -26.28125 15.265625 -26.28125 L 7.828125 -26.28125 L 7.828125 -16.875 Z M 16 -2.828125 C 20.144531 -2.828125 22.21875 -4.695312 22.21875 -8.4375 C 22.21875 -12.175781 20.144531 -14.046875 16 -14.046875 L 7.828125 -14.046875 L 7.828125 -2.828125 Z M 16 -2.828125 "/></g></g></g><g fill="#ffffff" fill-opacity="1"><g transform="translate(208.518387, 260.209207)"><g><path d="M 9.0625 0.421875 C 6.894531 0.421875 5.203125 -0.140625 3.984375 -1.265625 C 2.773438 -2.398438 2.171875 -4.015625 2.171875 -6.109375 C 2.171875 -7.410156 2.4375 -8.507812 2.96875 -9.40625 C 3.507812 -10.300781 4.34375 -11.03125 5.46875 -11.59375 C 6.601562 -12.15625 8.078125 -12.59375 9.890625 -12.90625 C 11.484375 -13.164062 12.691406 -13.460938 13.515625 -13.796875 C 14.347656 -14.128906 14.90625 -14.5 15.1875 -14.90625 C 15.476562 -15.320312 15.625 -15.84375 15.625 -16.46875 C 15.625 -17.457031 15.28125 -18.21875 14.59375 -18.75 C 13.914062 -19.28125 12.820312 -19.546875 11.3125 -19.546875 C 9.882812 -19.546875 8.660156 -19.269531 7.640625 -18.71875 C 6.628906 -18.164062 5.703125 -17.347656 4.859375 -16.265625 L 4.453125 -16.265625 L 2.859375 -18.515625 C 3.796875 -19.691406 4.976562 -20.628906 6.40625 -21.328125 C 7.84375 -22.023438 9.476562 -22.375 11.3125 -22.375 C 13.894531 -22.375 15.800781 -21.804688 17.03125 -20.671875 C 18.257812 -19.535156 18.875 -17.96875 18.875 -15.96875 L 18.875 -4.3125 C 18.875 -3.09375 19.390625 -2.484375 20.421875 -2.484375 C 20.765625 -2.484375 21.097656 -2.546875 21.421875 -2.671875 L 21.703125 -2.59375 L 22.078125 -0.34375 C 21.835938 -0.175781 21.519531 -0.0507812 21.125 0.03125 C 20.738281 0.113281 20.335938 0.15625 19.921875 0.15625 C 18.710938 0.15625 17.800781 -0.109375 17.1875 -0.640625 C 16.570312 -1.171875 16.175781 -1.953125 16 -2.984375 L 15.578125 -3.03125 C 14.960938 -1.875 14.125 -1.007812 13.0625 -0.4375 C 12 0.132812 10.664062 0.421875 9.0625 0.421875 Z M 9.765625 -2.171875 C 10.992188 -2.171875 12.054688 -2.453125 12.953125 -3.015625 C 13.847656 -3.578125 14.53125 -4.367188 15 -5.390625 C 15.476562 -6.410156 15.71875 -7.59375 15.71875 -8.9375 L 15.71875 -11.71875 L 15.34375 -11.796875 C 14.851562 -11.453125 14.253906 -11.164062 13.546875 -10.9375 C 12.847656 -10.707031 11.867188 -10.5 10.609375 -10.3125 C 9.335938 -10.132812 8.328125 -9.867188 7.578125 -9.515625 C 6.828125 -9.160156 6.289062 -8.707031 5.96875 -8.15625 C 5.65625 -7.601562 5.5 -6.921875 5.5 -6.109375 C 5.5 -4.828125 5.875 -3.847656 6.625 -3.171875 C 7.382812 -2.503906 8.429688 -2.171875 9.765625 -2.171875 Z M 9.765625 -2.171875 "/></g></g></g><g fill="#ffffff" fill-opacity="1"><g transform="translate(231.224442, 260.209207)"><g><path d="M 3.828125 0 L 3.828125 -21.953125 L 6.90625 -21.953125 L 6.90625 -18.515625 L 7.328125 -18.40625 C 8.054688 -19.695312 8.988281 -20.679688 10.125 -21.359375 C 11.257812 -22.035156 12.640625 -22.375 14.265625 -22.375 C 16.910156 -22.375 18.828125 -21.695312 20.015625 -20.34375 C 21.203125 -19 21.796875 -16.925781 21.796875 -14.125 L 21.796875 0 L 18.546875 0 L 18.546875 -14.046875 C 18.546875 -15.378906 18.375 -16.445312 18.03125 -17.25 C 17.695312 -18.050781 17.175781 -18.632812 16.46875 -19 C 15.757812 -19.363281 14.828125 -19.546875 13.671875 -19.546875 C 11.691406 -19.546875 10.09375 -18.890625 8.875 -17.578125 C 7.664062 -16.273438 7.0625 -14.171875 7.0625 -11.265625 L 7.0625 0 Z M 3.828125 0 "/></g></g></g></svg>